<?xml version="1.0" encoding="UTF-8" standalone="no"?>
<!-- Created with Inkscape (http://www.inkscape.org/) -->

<svg
   width="432.34937mm"
   height="50.615501mm"
   viewBox="0 0 432.34937 50.615501"
   version="1.1"
   id="svg740"
   sodipodi:docname="nnc.svg"
   inkscape:version="1.1 (c68e22c387, 2021-05-23)"
   xmlns:inkscape="http://www.inkscape.org/namespaces/inkscape"
   xmlns:sodipodi="http://sodipodi.sourceforge.net/DTD/sodipodi-0.dtd"
   xmlns="http://www.w3.org/2000/svg"
   xmlns:svg="http://www.w3.org/2000/svg">
  <sodipodi:namedview
     id="namedview742"
     pagecolor="#ffffff"
     bordercolor="#666666"
     borderopacity="1.0"
     inkscape:pageshadow="2"
     inkscape:pageopacity="0.0"
     inkscape:pagecheckerboard="0"
     inkscape:document-units="mm"
     showgrid="false"
     inkscape:zoom="0.69753788"
     inkscape:cx="761.96579"
     inkscape:cy="369.15558"
     inkscape:window-width="1920"
     inkscape:window-height="1001"
     inkscape:window-x="-9"
     inkscape:window-y="-9"
     inkscape:window-maximized="1"
     inkscape:current-layer="layer1"
     fit-margin-top="0"
     fit-margin-left="0"
     fit-margin-right="0"
     fit-margin-bottom="0" />
  <defs
     id="defs737">
    <inkscape:path-effect
       only_selected="false"
       apply_with_weight="true"
       apply_no_weight="true"
       helper_size="0"
       steps="2"
       weight="33.333333"
       is_visible="true"
       id="path-effect1818"
       effect="bspline"
       lpeversion="0" />
    <inkscape:path-effect
       only_selected="false"
       apply_with_weight="true"
       apply_no_weight="true"
       helper_size="0"
       steps="2"
       weight="33.333333"
       is_visible="true"
       id="path-effect421"
       effect="bspline"
       lpeversion="0" />
    <inkscape:path-effect
       only_selected="false"
       apply_with_weight="true"
       apply_no_weight="true"
       helper_size="0"
       steps="2"
       weight="33.333333"
       is_visible="true"
       id="path-effect24417"
       effect="bspline"
       lpeversion="0" />
    <inkscape:path-effect
       only_selected="false"
       apply_with_weight="true"
       apply_no_weight="true"
       helper_size="0"
       steps="2"
       weight="33.333333"
       is_visible="true"
       id="path-effect16472"
       effect="bspline"
       lpeversion="0" />
    <inkscape:path-effect
       only_selected="false"
       apply_with_weight="true"
       apply_no_weight="true"
       helper_size="0"
       steps="2"
       weight="33.333333"
       is_visible="true"
       id="path-effect9097"
       effect="bspline"
       lpeversion="0" />
    <inkscape:path-effect
       only_selected="false"
       apply_with_weight="true"
       apply_no_weight="true"
       helper_size="0"
       steps="2"
       weight="33.333333"
       is_visible="true"
       id="path-effect9040"
       effect="bspline"
       lpeversion="0" />
    <marker
       inkscape:stockid="SquareS"
       orient="auto"
       refY="0"
       refX="0"
       id="marker10159-6"
       style="overflow:visible"
       inkscape:isstock="true">
      <path
         id="path10157-9"
         d="M -5,-5 V 5 H 5 V -5 Z"
         style="fill:#000000;fill-opacity:1;fill-rule:evenodd;stroke:#000000;stroke-width:1pt;stroke-opacity:1"
         transform="scale(0.2)"
         inkscape:connector-curvature="0" />
    </marker>
    <marker
       inkscape:isstock="true"
       style="overflow:visible"
       id="TriangleOutM-79-9"
       refX="0"
       refY="0"
       orient="auto"
       inkscape:stockid="TriangleOutM">
      <path
         transform="scale(0.4)"
         style="fill:#000000;fill-opacity:1;fill-rule:evenodd;stroke:#000000;stroke-width:1pt;stroke-opacity:1"
         d="M 5.77,0 -2.88,5 V -5 Z"
         id="path3830-44-8"
         inkscape:connector-curvature="0" />
    </marker>
    <inkscape:path-effect
       only_selected="false"
       apply_with_weight="true"
       apply_no_weight="true"
       helper_size="0"
       steps="2"
       weight="33.333333"
       is_visible="true"
       id="path-effect3683-0-0"
       effect="bspline"
       lpeversion="0" />
    <marker
       inkscape:stockid="SquareS"
       orient="auto"
       refY="0"
       refX="0"
       id="marker10159-6-0"
       style="overflow:visible"
       inkscape:isstock="true">
      <path
         id="path10157-9-4"
         d="M -5,-5 V 5 H 5 V -5 Z"
         style="fill:#000000;fill-opacity:1;fill-rule:evenodd;stroke:#000000;stroke-width:1pt;stroke-opacity:1"
         transform="scale(0.2)"
         inkscape:connector-curvature="0" />
    </marker>
    <marker
       inkscape:isstock="true"
       style="overflow:visible"
       id="TriangleOutM-79-9-9"
       refX="0"
       refY="0"
       orient="auto"
       inkscape:stockid="TriangleOutM">
      <path
         transform="scale(0.4)"
         style="fill:#000000;fill-opacity:1;fill-rule:evenodd;stroke:#000000;stroke-width:1pt;stroke-opacity:1"
         d="M 5.77,0 -2.88,5 V -5 Z"
         id="path3830-44-8-2"
         inkscape:connector-curvature="0" />
    </marker>
    <marker
       inkscape:isstock="true"
       style="overflow:visible"
       id="marker10531-6-6"
       refX="0"
       refY="0"
       orient="auto"
       inkscape:stockid="SquareS">
      <path
         transform="scale(0.2)"
         style="fill:#000000;fill-opacity:1;fill-rule:evenodd;stroke:#000000;stroke-width:1pt;stroke-opacity:1"
         d="M -5,-5 V 5 H 5 V -5 Z"
         id="path10529-1-0"
         inkscape:connector-curvature="0" />
    </marker>
    <marker
       inkscape:isstock="true"
       style="overflow:visible"
       id="TriangleOutM-2-6-7"
       refX="0"
       refY="0"
       orient="auto"
       inkscape:stockid="TriangleOutM">
      <path
         transform="scale(0.4)"
         style="fill:#000000;fill-opacity:1;fill-rule:evenodd;stroke:#000000;stroke-width:1pt;stroke-opacity:1"
         d="M 5.77,0 -2.88,5 V -5 Z"
         id="path3830-2-5-7"
         inkscape:connector-curvature="0" />
    </marker>
    <marker
       inkscape:stockid="SquareS"
       orient="auto"
       refY="0"
       refX="0"
       id="marker10159-6-0-6"
       style="overflow:visible"
       inkscape:isstock="true">
      <path
         id="path10157-9-4-3"
         d="M -5,-5 V 5 H 5 V -5 Z"
         style="fill:#000000;fill-opacity:1;fill-rule:evenodd;stroke:#000000;stroke-width:1pt;stroke-opacity:1"
         transform="scale(0.2)"
         inkscape:connector-curvature="0" />
    </marker>
    <marker
       inkscape:isstock="true"
       style="overflow:visible"
       id="TriangleOutM-79-9-9-7"
       refX="0"
       refY="0"
       orient="auto"
       inkscape:stockid="TriangleOutM">
      <path
         transform="scale(0.4)"
         style="fill:#000000;fill-opacity:1;fill-rule:evenodd;stroke:#000000;stroke-width:1pt;stroke-opacity:1"
         d="M 5.77,0 -2.88,5 V -5 Z"
         id="path3830-44-8-2-9"
         inkscape:connector-curvature="0" />
    </marker>
    <marker
       inkscape:isstock="true"
       style="overflow:visible"
       id="marker10531-6-6-0"
       refX="0"
       refY="0"
       orient="auto"
       inkscape:stockid="SquareS">
      <path
         transform="scale(0.2)"
         style="fill:#000000;fill-opacity:1;fill-rule:evenodd;stroke:#000000;stroke-width:1pt;stroke-opacity:1"
         d="M -5,-5 V 5 H 5 V -5 Z"
         id="path10529-1-0-0"
         inkscape:connector-curvature="0" />
    </marker>
    <marker
       inkscape:isstock="true"
       style="overflow:visible"
       id="TriangleOutM-2-6-7-6"
       refX="0"
       refY="0"
       orient="auto"
       inkscape:stockid="TriangleOutM">
      <path
         transform="scale(0.4)"
         style="fill:#000000;fill-opacity:1;fill-rule:evenodd;stroke:#000000;stroke-width:1pt;stroke-opacity:1"
         d="M 5.77,0 -2.88,5 V -5 Z"
         id="path3830-2-5-7-3"
         inkscape:connector-curvature="0" />
    </marker>
    <marker
       inkscape:stockid="SquareS"
       orient="auto"
       refY="0"
       refX="0"
       id="marker10159-6-0-6-3"
       style="overflow:visible"
       inkscape:isstock="true">
      <path
         id="path10157-9-4-3-1"
         d="M -5,-5 V 5 H 5 V -5 Z"
         style="fill:#000000;fill-opacity:1;fill-rule:evenodd;stroke:#000000;stroke-width:1pt;stroke-opacity:1"
         transform="scale(0.2)"
         inkscape:connector-curvature="0" />
    </marker>
    <marker
       inkscape:isstock="true"
       style="overflow:visible"
       id="TriangleOutM-79-9-9-7-8"
       refX="0"
       refY="0"
       orient="auto"
       inkscape:stockid="TriangleOutM">
      <path
         transform="scale(0.4)"
         style="fill:#000000;fill-opacity:1;fill-rule:evenodd;stroke:#000000;stroke-width:1pt;stroke-opacity:1"
         d="M 5.77,0 -2.88,5 V -5 Z"
         id="path3830-44-8-2-9-5"
         inkscape:connector-curvature="0" />
    </marker>
    <marker
       inkscape:stockid="SquareS"
       orient="auto"
       refY="0"
       refX="0"
       id="marker10159-6-0-6-3-7"
       style="overflow:visible"
       inkscape:isstock="true">
      <path
         id="path10157-9-4-3-1-1"
         d="M -5,-5 V 5 H 5 V -5 Z"
         style="fill:#000000;fill-opacity:1;fill-rule:evenodd;stroke:#000000;stroke-width:1pt;stroke-opacity:1"
         transform="scale(0.2)"
         inkscape:connector-curvature="0" />
    </marker>
    <marker
       inkscape:isstock="true"
       style="overflow:visible"
       id="TriangleOutM-79-9-9-7-8-9"
       refX="0"
       refY="0"
       orient="auto"
       inkscape:stockid="TriangleOutM">
      <path
         transform="scale(0.4)"
         style="fill:#000000;fill-opacity:1;fill-rule:evenodd;stroke:#000000;stroke-width:1pt;stroke-opacity:1"
         d="M 5.77,0 -2.88,5 V -5 Z"
         id="path3830-44-8-2-9-5-7"
         inkscape:connector-curvature="0" />
    </marker>
  </defs>
  <g
     inkscape:label="Layer 1"
     inkscape:groupmode="layer"
     id="layer1"
     transform="translate(-253.19868,38.834142)">
    <text
       transform="scale(0.97526067,1.0253669)"
       id="text24591-44-2"
       y="-33.080593"
       x="276.7821"
       style="font-style:normal;font-weight:normal;font-size:6.47473px;line-height:1.25;font-family:sans-serif;letter-spacing:0px;word-spacing:0px;fill:#000000;fill-opacity:1;stroke:none;stroke-width:0.264583"
       xml:space="preserve"><tspan
         id="tspan1702"
         style="font-style:normal;font-variant:normal;font-weight:600;font-stretch:normal;font-size:6.47473px;font-family:'Segoe UI';-inkscape-font-specification:'Segoe UI Semi-Bold';text-align:center;text-anchor:middle;stroke-width:0.264583"
         y="-33.080593"
         x="276.7821"
         sodipodi:role="line">Centralized </tspan><tspan
         style="font-style:normal;font-variant:normal;font-weight:600;font-stretch:normal;font-size:6.47473px;font-family:'Segoe UI';-inkscape-font-specification:'Segoe UI Semi-Bold';text-align:center;text-anchor:middle;stroke-width:0.264583"
         y="-24.91223"
         x="276.7821"
         sodipodi:role="line"
         id="tspan9485">Server</tspan></text>
    <g
       style="stroke:#000000;stroke-width:1.13386;stroke-miterlimit:4;stroke-dasharray:none;stroke-opacity:1"
       id="g1466"
       transform="matrix(0.26458333,0,0,0.26458333,379.47468,-19.666294)">
      <path
         style="stroke:#000000;stroke-width:1.13386;stroke-miterlimit:4;stroke-dasharray:none;stroke-opacity:1"
         id="path1464"
         d="M 65.271,5.03 H 34.729 a 6.94,6.94 0 0 0 -6.94,6.94 v 76.059 a 6.94,6.94 0 0 0 6.94,6.94 h 30.542 a 6.94,6.94 0 0 0 6.94,-6.94 V 11.971 A 6.94,6.94 0 0 0 65.271,5.03 Z m 4.209,83.206 a 4.018,4.018 0 0 1 -4.018,4.018 H 34.539 A 4.018,4.018 0 0 1 30.521,88.236 V 11.78 a 4.018,4.018 0 0 1 4.018,-4.018 h 9.355 c 0.157,0 0.284,0.238 0.286,0.533 v 0.261 a 2.319,2.319 0 0 0 2.32,2.319 h 6.971 A 2.319,2.319 0 0 0 55.79,8.556 V 8.3 c 0,-0.3 0.128,-0.539 0.287,-0.539 h 9.386 a 4.018,4.018 0 0 1 4.018,4.018 z"
         inkscape:connector-curvature="0" />
    </g>
    <path
       id="path6364"
       d="m 385.80026,8.1584464 c 0,0.14613 -0.11846,0.26459 -0.26459,0.26459 -0.14612,0 -0.26458,-0.11846 -0.26458,-0.26459 v -0.52813 c 0,-0.76395 -0.5266,-1.32395 -1.19063,-1.32395 h -1.71892 c -0.7807,0 -1.32381,0.54289 -1.32381,1.32292 v 0.52916 c 0,0.14613 -0.11846,0.26459 -0.26458,0.26459 -0.14613,0 -0.26459,-0.11846 -0.26459,-0.26459 v -0.52916 c 0,-1.07233 0.78008,-1.85209 1.85298,-1.85209 h 1.71892 c 0.96381,0 1.7198,0.80394 1.7198,1.85312 z m -2.64585,-3.17501 c -0.87676,0 -1.58751,-0.71073 -1.58751,-1.5875 0,-0.87674 0.71075,-1.5875 1.58751,-1.5875 0.87676,0 1.58751,0.71075 1.58751,1.5875 0,0.87676 -0.71075,1.5875 -1.58751,1.5875 z m 0,-0.52915 c 0.5845,0 1.05834,-0.47384 1.05834,-1.05834 0,-0.5845 -0.47384,-1.05833 -1.05834,-1.05833 -0.58451,0 -1.05834,0.47383 -1.05834,1.05833 0,0.5845 0.47383,1.05834 1.05834,1.05834 z"
       style="fill:#000000;stroke:#000000;stroke-width:0.3;stroke-miterlimit:4;stroke-dasharray:none;stroke-opacity:1"
       inkscape:connector-curvature="0" />
    <text
       transform="scale(1.0196418,0.98073657)"
       id="text24591-4-5"
       y="-34.803951"
       x="426.24982"
       style="font-style:normal;font-weight:normal;font-size:5.0359px;line-height:1.25;font-family:sans-serif;text-align:center;letter-spacing:0px;word-spacing:0px;text-anchor:middle;fill:#000000;fill-opacity:1;stroke:none;stroke-width:0.264583"
       xml:space="preserve"><tspan
         style="font-style:normal;font-variant:normal;font-weight:600;font-stretch:normal;font-size:6.47473px;font-family:'Segoe UI';-inkscape-font-specification:'Segoe UI Semi-Bold';text-align:center;text-anchor:middle;stroke-width:0.264583"
         y="-34.803951"
         x="426.24982"
         sodipodi:role="line"
         id="tspan4606">Local (Noisy) </tspan><tspan
         style="font-style:normal;font-variant:normal;font-weight:600;font-stretch:normal;font-size:6.47473px;font-family:'Segoe UI';-inkscape-font-specification:'Segoe UI Semi-Bold';text-align:center;text-anchor:middle;stroke-width:0.264583"
         y="-26.710539"
         x="426.24982"
         sodipodi:role="line"
         id="tspan17067">Data</tspan></text>
    <text
       transform="scale(1.0196418,0.98073657)"
       id="text24591-4-5-7"
       y="-34.803951"
       x="478.91229"
       style="font-style:normal;font-weight:normal;font-size:5.0359px;line-height:1.25;font-family:sans-serif;text-align:center;letter-spacing:0px;word-spacing:0px;text-anchor:middle;fill:#000000;fill-opacity:1;stroke:none;stroke-width:0.264583"
       xml:space="preserve"><tspan
         style="font-style:normal;font-variant:normal;font-weight:600;font-stretch:normal;font-size:6.47473px;font-family:'Segoe UI';-inkscape-font-specification:'Segoe UI Semi-Bold';text-align:center;text-anchor:middle;stroke-width:0.264583"
         y="-34.803951"
         x="478.91229"
         sodipodi:role="line"
         id="tspan4606-6">Embeddings</tspan><tspan
         style="font-style:normal;font-variant:normal;font-weight:600;font-stretch:normal;font-size:6.47473px;font-family:'Segoe UI';-inkscape-font-specification:'Segoe UI Semi-Bold';text-align:center;text-anchor:middle;stroke-width:0.264583"
         y="-26.710539"
         x="478.91229"
         sodipodi:role="line"
         id="tspan18218">Extraction</tspan></text>
    <text
       transform="scale(1.0196418,0.98073657)"
       id="text24591-4-5-7-0"
       y="-34.803875"
       x="534.54089"
       style="font-style:normal;font-weight:normal;font-size:5.0359px;line-height:1.25;font-family:sans-serif;text-align:center;letter-spacing:0px;word-spacing:0px;text-anchor:middle;fill:#000000;fill-opacity:1;stroke:none;stroke-width:0.264583"
       xml:space="preserve"><tspan
         style="font-style:normal;font-variant:normal;font-weight:600;font-stretch:normal;font-size:6.47473px;font-family:'Segoe UI';-inkscape-font-specification:'Segoe UI Semi-Bold';text-align:center;text-anchor:middle;stroke-width:0.264583"
         y="-34.803875"
         x="534.54089"
         sodipodi:role="line"
         id="tspan23806">k-NN Label </tspan><tspan
         style="font-style:normal;font-variant:normal;font-weight:600;font-stretch:normal;font-size:6.47473px;font-family:'Segoe UI';-inkscape-font-specification:'Segoe UI Semi-Bold';text-align:center;text-anchor:middle;stroke-width:0.264583"
         y="-26.710463"
         x="534.54089"
         sodipodi:role="line"
         id="tspan24871">Estimation</tspan></text>
    <path
       inkscape:original-d="m 402.76466,-5.9312367 c 6.15019,2.6e-4 12.29995,2.6e-4 18.44925,0"
       inkscape:path-effect="#path-effect9097"
       inkscape:connector-curvature="0"
       id="path3681-9-6-1"
       d="m 402.76466,-5.9312367 c 6.15019,0 12.29995,0 18.44925,0"
       style="fill:none;stroke:#000000;stroke-width:0.965;stroke-linecap:round;stroke-linejoin:miter;stroke-miterlimit:4;stroke-dasharray:none;stroke-opacity:1;marker-start:url(#marker10531-6-6);marker-end:url(#TriangleOutM-2-6-7)" />
    <text
       id="text24591-4"
       y="-34.04118"
       x="335.04919"
       style="font-style:normal;font-weight:normal;font-size:6.47473px;line-height:1.25;font-family:sans-serif;text-align:center;letter-spacing:0px;word-spacing:0px;text-anchor:middle;fill:#000000;fill-opacity:1;stroke:none;stroke-width:0.264583"
       xml:space="preserve"><tspan
         style="font-style:normal;font-variant:normal;font-weight:600;font-stretch:normal;font-size:6.47473px;font-family:'Segoe UI';-inkscape-font-specification:'Segoe UI Semi-Bold';text-align:center;text-anchor:middle;stroke-width:0.264583"
         y="-34.04118"
         x="335.04919"
         sodipodi:role="line"
         id="tspan12772">Pretrained</tspan><tspan
         style="font-style:normal;font-variant:normal;font-weight:600;font-stretch:normal;font-size:6.47473px;font-family:'Segoe UI';-inkscape-font-specification:'Segoe UI Semi-Bold';text-align:center;text-anchor:middle;stroke-width:0.264583"
         y="-25.872816"
         x="335.04919"
         sodipodi:role="line"
         id="tspan24243">Model</tspan></text>
    <path
       sodipodi:nodetypes="cc"
       inkscape:original-d="m 293.0902,-5.6369717 c 6.39295,-0.0175 12.78545,-0.0347 19.17742,-0.0517"
       inkscape:path-effect="#path-effect3683-0-0"
       inkscape:connector-curvature="0"
       id="path3681-1-2"
       d="m 293.0902,-5.6369717 c 6.39295,-0.017235 12.78545,-0.034468 19.17742,-0.0517"
       style="fill:none;stroke:#000000;stroke-width:0.965;stroke-linecap:round;stroke-linejoin:miter;stroke-miterlimit:4;stroke-dasharray:none;stroke-opacity:1;marker-start:url(#marker10159-6);marker-end:url(#TriangleOutM-79-9)" />
    <path
       sodipodi:nodetypes="cc"
       inkscape:original-d="m 359.1952,-5.6370207 c 6.39295,-0.0175 12.78545,-0.0347 19.17742,-0.0517"
       inkscape:path-effect="#path-effect9040"
       inkscape:connector-curvature="0"
       id="path3681-1-2-0"
       d="m 359.1952,-5.6370207 c 6.39295,-0.017235 12.78545,-0.034468 19.17742,-0.0517"
       style="fill:none;stroke:#000000;stroke-width:0.965;stroke-linecap:round;stroke-linejoin:miter;stroke-miterlimit:4;stroke-dasharray:none;stroke-opacity:1;marker-start:url(#marker10159-6-0);marker-end:url(#TriangleOutM-79-9-9)" />
    <path
       sodipodi:nodetypes="cc"
       inkscape:original-d="m 503.7137,-6.5357346 c 6.39295,-0.0175 12.78545,-0.0347 19.17742,-0.0517"
       inkscape:path-effect="#path-effect16472"
       inkscape:connector-curvature="0"
       id="path3681-1-2-0-9"
       d="m 503.7137,-6.5357346 c 6.39295,-0.017235 12.78545,-0.034468 19.17742,-0.0517"
       style="fill:none;stroke:#000000;stroke-width:0.965;stroke-linecap:round;stroke-linejoin:miter;stroke-miterlimit:4;stroke-dasharray:none;stroke-opacity:1;marker-start:url(#marker10159-6-0-6);marker-end:url(#TriangleOutM-79-9-9-7)" />
    <path
       sodipodi:nodetypes="cc"
       inkscape:original-d="m 566.12521,-6.5360207 c 6.39295,-0.0175 12.78545,-0.0347 19.17742,-0.0517"
       inkscape:path-effect="#path-effect421"
       inkscape:connector-curvature="0"
       id="path3681-1-2-0-9-3"
       d="m 566.12521,-6.5360207 c 6.39295,-0.017235 12.78545,-0.034468 19.17742,-0.0517"
       style="fill:none;stroke:#000000;stroke-width:0.965;stroke-linecap:round;stroke-linejoin:miter;stroke-miterlimit:4;stroke-dasharray:none;stroke-opacity:1;marker-start:url(#marker10159-6-0-6-3);marker-end:url(#TriangleOutM-79-9-9-7-8)" />
    <path
       sodipodi:nodetypes="cc"
       inkscape:original-d="m 633.85432,-6.5360207 c 6.39295,-0.0175 12.78545,-0.0347 19.17742,-0.0517"
       inkscape:path-effect="#path-effect1818"
       inkscape:connector-curvature="0"
       id="path3681-1-2-0-9-3-3"
       d="m 633.85432,-6.5360207 c 6.39295,-0.017235 12.78545,-0.034468 19.17742,-0.0517"
       style="fill:none;stroke:#000000;stroke-width:0.965;stroke-linecap:round;stroke-linejoin:miter;stroke-miterlimit:4;stroke-dasharray:none;stroke-opacity:1;marker-start:url(#marker10159-6-0-6-3-7);marker-end:url(#TriangleOutM-79-9-9-7-8-9)" />
    <rect
       rx="0.081575528"
       ry="0.081575528"
       y="-19.285875"
       x="318.95343"
       height="27.539"
       width="35.577965"
       id="rect5547-0"
       style="fill:#ffffff;fill-opacity:1;fill-rule:nonzero;stroke:#000000;stroke-width:1.565;stroke-linecap:round;stroke-linejoin:round;stroke-miterlimit:4;stroke-dasharray:none;stroke-dashoffset:0;stroke-opacity:1;paint-order:stroke fill markers" />
    <path
       d="m 436.84973,-14.105519 c -1.92421,0 -3.84421,0.158401 -5.31883,0.48294 -0.73717,0.16234 -1.36144,0.361202 -1.83744,0.630705 -0.44335,0.250989 -0.78555,0.604828 -0.83116,1.039691 -0.006,0.04899 -0.008,0.06555 -0.0124,0.09666 v 3.8067748 0.028381 3.8126114 0.022725 3.83500347 c 0,0.48054576 0.3676,0.8611201 0.84373,1.13063295 0.47613,0.26950278 1.1003,0.47408168 1.83744,0.63642168 1.47445,0.3245386 3.39447,0.4772329 5.31883,0.4772329 1.92435,0 3.84422,-0.1526943 5.31883,-0.4772329 0.73717,-0.16234 1.36758,-0.3667876 1.84372,-0.63642168 0.47614,-0.26950274 0.83745,-0.65008719 0.83745,-1.13063295 V -11.855706 c 0,-0.02677 -0.004,-0.0501 -0.006,-0.07383 -0.0357,-0.445548 -0.38017,-0.807094 -0.83116,-1.062547 -0.47613,-0.269503 -1.10656,-0.468365 -1.84372,-0.630705 -1.47444,-0.324549 -3.39448,-0.48295 -5.31882,-0.48295 z m 0,0.727192 c 1.87579,0 3.75565,0.157391 5.13134,0.460255 0.68778,0.151431 1.25109,0.344314 1.6063,0.545479 0.33314,0.188581 0.44935,0.348497 0.46245,0.488657 v 0.02838 c 0,0.146867 -0.10728,0.310338 -0.46245,0.511361 -0.35518,0.201014 -0.91838,0.394049 -1.6063,0.545481 -1.37555,0.302854 -3.25537,0.460255 -5.13134,0.460255 -1.87578,0 -3.75565,-0.157391 -5.13134,-0.460255 -0.68776,-0.151432 -1.25108,-0.344315 -1.60628,-0.545481 -0.3552,-0.201023 -0.46247,-0.364504 -0.46247,-0.511361 0,-0.146856 0.10728,-0.315913 0.46247,-0.517068 0.35518,-0.201013 0.91852,-0.394048 1.60628,-0.54548 1.37555,-0.302853 3.25538,-0.460254 5.13134,-0.460254 z m -7.19987,2.625025 c 0.0151,0.0091 0.0286,0.0198 0.0438,0.02838 0.47614,0.269503 1.10031,0.468375 1.83744,0.630705 1.47444,0.3245485 3.39448,0.4829494 5.31883,0.4829494 1.92436,0 3.84422,-0.1584009 5.31884,-0.4829494 0.73717,-0.16233 1.36758,-0.361192 1.84372,-0.630705 0.013,-0.0071 0.0247,-0.01525 0.0375,-0.02272 v 2.7272368 c 0,0.1468565 -0.10727,0.3103378 -0.46245,0.5113513 -0.35519,0.2010237 -0.91838,0.3940581 -1.60629,0.5454798 -1.37555,0.3028636 -3.25538,0.4602545 -5.13134,0.4602545 -1.87579,0 -3.75565,-0.1573909 -5.13135,-0.4602545 -0.68777,-0.1514217 -1.25107,-0.3443046 -1.60629,-0.5454798 -0.35518,-0.2010135 -0.46245,-0.3645049 -0.46245,-0.5113513 v -0.039795 z m 0,3.8350131 c 0.0151,0.00909 0.0286,0.019897 0.0438,0.028381 0.47614,0.2695028 1.10031,0.4740817 1.83744,0.6364116 1.47444,0.3245487 3.39448,0.4772329 5.31883,0.4772329 1.92436,0 3.84422,-0.1526943 5.31884,-0.4772329 0.73717,-0.1623299 1.36758,-0.3669088 1.84372,-0.6364116 0.013,-0.00707 0.0247,-0.015251 0.0375,-0.022725 v 2.7272272 c 0,0.1468665 -0.10727,0.3159231 -0.46245,0.5170781 -0.35519,0.2010135 -0.91838,0.3883312 -1.60629,0.539763 -1.37555,0.3028536 -3.25538,0.4602546 -5.13134,0.4602546 -1.87579,0 -3.75565,-0.1573909 -5.13135,-0.4602546 -0.68777,-0.1514318 -1.25107,-0.3387596 -1.60629,-0.539763 -0.35521,-0.2010035 -0.46245,-0.3701914 -0.46245,-0.5170781 v -0.034139 z m 0,3.8350034 c 0.0152,0.00909 0.0284,0.019695 0.0438,0.028382 0.47614,0.2695027 1.10031,0.4740816 1.83744,0.6364216 1.47444,0.3246699 3.39448,0.477233 5.31883,0.477233 1.92436,0 3.84422,-0.1526944 5.31884,-0.477233 0.73717,-0.16234 1.36758,-0.3667775 1.84372,-0.6364216 0.0133,-0.00707 0.0244,-0.015049 0.0375,-0.022725 v 2.72723727 c 0,0.14685641 -0.10727,0.31592312 -0.46245,0.51706796 -0.35519,0.20102366 -0.91838,0.38834137 -1.60629,0.53976306 -1.37555,0.30286361 -3.25538,0.46025451 -5.13134,0.46025451 -1.87579,0 -3.75565,-0.1573909 -5.13135,-0.46025451 -0.68777,-0.15142169 -1.25107,-0.3387596 -1.60629,-0.53976306 -0.35521,-0.20100344 -0.46245,-0.37019135 -0.46245,-0.51706796 z"
       fill-rule="evenodd"
       id="path7259-26-3"
       style="fill:#000000;stroke-width:0.0340518" />
    <text
       transform="scale(1.0196418,0.98073657)"
       id="text24591-4-5-2"
       y="-34.803951"
       x="385.34766"
       style="font-style:normal;font-weight:normal;font-size:5.0359px;line-height:1.25;font-family:sans-serif;text-align:center;letter-spacing:0px;word-spacing:0px;text-anchor:middle;fill:#000000;fill-opacity:1;stroke:none;stroke-width:0.264583"
       xml:space="preserve"><tspan
         style="font-style:normal;font-variant:normal;font-weight:600;font-stretch:normal;font-size:6.47473px;font-family:'Segoe UI';-inkscape-font-specification:'Segoe UI Semi-Bold';text-align:center;text-anchor:middle;stroke-width:0.264583"
         y="-34.803951"
         x="385.34766"
         sodipodi:role="line"
         id="tspan4606-96">Federated </tspan><tspan
         style="font-style:normal;font-variant:normal;font-weight:600;font-stretch:normal;font-size:6.47473px;font-family:'Segoe UI';-inkscape-font-specification:'Segoe UI Semi-Bold';text-align:center;text-anchor:middle;stroke-width:0.264583"
         y="-26.710539"
         x="385.34766"
         sodipodi:role="line"
         id="tspan2365">Client</tspan></text>
    <g
       id="g17594"
       transform="matrix(0.17575783,0,0,0.18469387,429.47181,-7.5388116)"
       style="fill:#000000">
      <path
         d="m 571.67112,28.617023 c 3.49194,0 6.32249,3.491936 6.32249,6.322483 0,3.491936 -2.83048,6.322484 -6.32249,6.322484 -3.49193,0 -6.32248,-3.491936 -6.32248,-6.322484 0,-3.491935 2.83048,-6.322483 6.32248,-6.322483 z"
         id="path17403"
         style="fill:#000000;stroke-width:0.352778" />
      <path
         d="m 634.8889,-26.698531 c 3.49194,0 6.32248,3.491935 6.32248,6.322483 0,3.491936 -2.83047,6.322483 -6.32248,6.322483 -3.49193,0 -6.32248,-3.491935 -6.32248,-6.322483 0,-3.491935 2.83047,-6.322483 6.32248,-6.322483 z"
         id="path17405"
         style="fill:#000000;stroke-width:0.352778" />
      <path
         d="m 719.83779,83.932578 c 3.49193,0 6.32248,3.491935 6.32248,6.322483 0,3.491935 -2.83048,6.322483 -6.32248,6.322483 -3.49194,0 -6.32249,-3.491936 -6.32249,-6.322483 0,-3.491936 2.83048,-6.322483 6.32249,-6.322483 z"
         id="path17407"
         style="fill:#000000;stroke-width:0.352778" />
      <path
         d="m 656.62001,54.299245 c 3.49194,0 6.32248,3.491935 6.32248,6.322483 0,3.491935 -2.83047,6.322483 -6.32248,6.322483 -3.49193,0 -6.32248,-3.491935 -6.32248,-6.322483 0,-3.491935 2.83048,-6.322483 6.32248,-6.322483 z"
         id="path17409"
         style="fill:#000000;stroke-width:0.352778" />
      <path
         d="m 729.71557,-8.9185316 c 3.49193,0 6.32248,3.4919355 6.32248,6.3224832 0,3.49193551 -2.83048,6.3224832 -6.32248,6.3224832 -3.49194,0 -6.32249,-3.49193545 -6.32249,-6.3224832 0,-3.4919354 2.83048,-6.3224832 6.32249,-6.3224832 z"
         id="path17411"
         style="fill:#000000;stroke-width:0.352778" />
      <path
         d="m 648.71779,7.4785792 c -1.74459,0 -3.41754,0.6931378 -4.65243,1.9264841 -1.23335,1.2347227 -1.92649,2.9076647 -1.92649,4.6524337 0,1.744768 0.69314,3.417534 1.92649,4.652433 1.23472,1.233346 2.90766,1.926484 4.65243,1.926484 1.74477,0 3.41753,-0.693138 4.65243,-1.926484 1.23335,-1.234722 1.92649,-2.907665 1.92649,-4.652433 0,-1.744769 -0.69314,-3.417535 -1.92649,-4.6524337 -1.23472,-1.2333463 -2.90766,-1.9264841 -4.65243,-1.9264841 z m 0,11.1812918 c -1.86171,0 -3.54013,-1.121728 -4.25274,-2.841519 -0.71243,-1.719792 -0.31832,-3.699934 0.99769,-5.016148 1.31604,-1.3160371 3.29629,-1.7101604 5.01615,-0.9976904 1.71979,0.7124344 2.84152,2.3908804 2.84152,4.2527364 0,2.542469 -2.06015,4.602691 -4.60269,4.602691 z"
         id="path17413"
         style="fill:#000000;stroke-width:0.352778" />
      <path
         d="m 688.83921,-14.390115 1.40285,-1.402856 -4.56283,-4.562828 4.56283,-4.583288 -1.40285,-1.402856 -4.56283,4.583288 -4.56424,-4.583288 -1.40286,1.402856 4.56424,4.583288 -4.56424,4.562828 1.40286,1.402856 4.56424,-4.583289 z"
         id="path17415"
         style="fill:#000000;stroke-width:0.352778" />
      <path
         d="m 614.51951,-53.901578 4.56424,-4.583289 4.56424,4.583289 1.40148,-1.402856 -4.56283,-4.583289 4.56283,-4.562827 -1.40148,-1.402856 -4.56424,4.583288 -4.56424,-4.583288 -1.40148,1.402856 4.56283,4.562827 -4.56283,4.583289 z"
         id="path17417"
         style="fill:#000000;stroke-width:0.352778" />
      <path
         d="m 696.16993,28.401829 -1.40286,-1.402856 -4.56283,4.583288 -4.56424,-4.583288 -1.40285,1.402856 4.56424,4.583289 -4.56424,4.564238 1.40285,1.401481 4.56424,-4.583289 4.56283,4.583289 1.40286,-1.401481 -4.56424,-4.564238 z"
         id="path17419"
         style="fill:#000000;stroke-width:0.352778" />
      <path
         d="m 609.81698,21.071107 -4.56282,4.583288 -4.56424,-4.583288 -1.40286,1.402856 4.56424,4.583289 -4.56424,4.564238 1.40286,1.402856 4.56424,-4.583288 4.56282,4.583288 1.40286,-1.402856 -4.56283,-4.564238 4.56283,-4.583289 z"
         id="path17421"
         style="fill:#000000;stroke-width:0.352778" />
      <path
         d="m 648.71779,-54.711908 c -18.23826,0 -35.72933,7.245702 -48.62689,20.142905 -12.89755,12.897202 -20.1429,30.3886297 -20.1429,48.626888 0,18.238258 7.2457,35.729332 20.1429,48.626887 12.8972,12.897556 30.38863,20.142906 48.62689,20.142906 18.23826,0 35.72933,-7.245703 48.62689,-20.142906 12.89755,-12.897202 20.1429,-30.388629 20.1429,-48.626887 -0.0165,-18.2343778 -7.26651,-35.715222 -20.15948,-48.609249 -12.89438,-12.892969 -30.37593,-20.142905 -48.60925,-20.159486 z m 0,135.561913 c -17.71474,0 -34.70451,-7.037563 -47.22989,-19.563996 -12.52643,-12.525022 -19.564,-29.5148 -19.564,-47.229888 0,-17.7150888 7.03757,-34.704513 19.564,-47.229888 12.52502,-12.526433 29.5148,-19.563997 47.22989,-19.563997 17.71509,0 34.70451,7.037564 47.22989,19.563997 12.52643,12.525022 19.56399,29.5147992 19.56399,47.229888 -0.0207,17.70768 -7.06508,34.68511 -19.58622,47.208721 -12.5222,12.520789 -29.49963,19.565408 -47.20872,19.586222 z"
         id="path17423"
         style="fill:#000000;stroke-width:0.352778" />
    </g>
    <path
       inkscape:original-d="m 450.56558,-5.9310214 c 6.15019,2.6e-4 12.29995,2.6e-4 18.44925,0"
       inkscape:path-effect="#path-effect24417"
       inkscape:connector-curvature="0"
       id="path3681-9-6-1-9"
       d="m 450.56558,-5.9310214 c 6.15019,0 12.29995,0 18.44925,0"
       style="fill:none;stroke:#000000;stroke-width:0.965;stroke-linecap:round;stroke-linejoin:miter;stroke-miterlimit:4;stroke-dasharray:none;stroke-opacity:1;marker-start:url(#marker10531-6-6-0);marker-end:url(#TriangleOutM-2-6-7-6)" />
    <path
       d="m 668.16726,-13.445848 c -1.92422,0 -3.84422,0.158401 -5.31882,0.48294 -0.73717,0.16234 -1.36146,0.361202 -1.83745,0.630704 -0.44335,0.250989 -0.78556,0.604829 -0.83116,1.039692 -0.006,0.04898 -0.007,0.06555 -0.0124,0.09666 v 3.8067723 0.028382 3.8126103 0.022725 3.8350023 c 0,0.4805456 0.36761,0.8611198 0.84373,1.1306326 0.47613,0.2695027 1.1003,0.4740816 1.83744,0.6364215 1.47444,0.3245386 3.39446,0.4772328 5.31883,0.4772328 1.92435,0 3.84422,-0.1526942 5.31883,-0.4772328 0.73717,-0.1623399 1.36758,-0.3667875 1.84372,-0.6364215 0.47614,-0.2695027 0.83745,-0.650087 0.83745,-1.1306326 V -11.196035 c 0,-0.02676 -0.004,-0.0501 -0.006,-0.07383 -0.0357,-0.445549 -0.38017,-0.807094 -0.83115,-1.062548 -0.47613,-0.269503 -1.10656,-0.468365 -1.84373,-0.630705 -1.47443,-0.324548 -3.39447,-0.482949 -5.31881,-0.482949 z m 0,0.727192 c 1.87579,0 3.75565,0.157391 5.13134,0.460254 0.68778,0.151432 1.25108,0.344315 1.6063,0.54548 0.33314,0.188581 0.44935,0.348496 0.46246,0.488656 v 0.02838 c 0,0.146866 -0.10729,0.310337 -0.46246,0.511361 -0.35519,0.201013 -0.91839,0.394049 -1.6063,0.54548 -1.37556,0.3028536 -3.25538,0.4602547 -5.13134,0.4602547 -1.87577,0 -3.75564,-0.1573905 -5.13134,-0.4602547 -0.68776,-0.151431 -1.25108,-0.344315 -1.60628,-0.54548 -0.35519,-0.201024 -0.46246,-0.364504 -0.46246,-0.511361 0,-0.146856 0.10727,-0.315913 0.46246,-0.517068 0.35518,-0.201014 0.91852,-0.394048 1.60628,-0.54548 1.37556,-0.302853 3.25538,-0.460255 5.13134,-0.460255 z m -7.19987,2.625023 c 0.015,0.0091 0.0286,0.0198 0.0439,0.02838 0.47615,0.2695032 1.10032,0.468375 1.83744,0.6307048 1.47444,0.3245473 3.39447,0.4829482 5.31884,0.4829482 1.92436,0 3.84422,-0.1584009 5.31883,-0.4829482 0.73717,-0.1623298 1.36759,-0.361192 1.84372,-0.6307048 0.013,-0.007 0.0247,-0.01525 0.0375,-0.02272 v 2.7272357 c 0,0.1468564 -0.10727,0.3103376 -0.46245,0.5113511 -0.35518,0.2010236 -0.91837,0.394058 -1.60629,0.5454796 -1.37555,0.3028635 -3.25537,0.4602544 -5.13133,0.4602544 -1.8758,0 -3.75566,-0.1573909 -5.13135,-0.4602544 -0.68777,-0.1514216 -1.25109,-0.3443045 -1.6063,-0.5454796 -0.35518,-0.2010135 -0.46245,-0.3645048 -0.46245,-0.5113511 v -0.039795 z m 0,3.8350121 c 0.015,0.00909 0.0286,0.019898 0.0439,0.028382 0.47615,0.2695026 1.10032,0.4740816 1.83744,0.6364113 1.47444,0.3245487 3.39447,0.4772328 5.31884,0.4772328 1.92436,0 3.84422,-0.1526942 5.31883,-0.4772328 0.73717,-0.1623297 1.36759,-0.3669087 1.84372,-0.6364113 0.013,-0.00707 0.0247,-0.015251 0.0375,-0.022725 v 2.7272263 c 0,0.1468665 -0.10727,0.3159231 -0.46245,0.5170779 -0.35518,0.2010135 -0.91837,0.3883312 -1.60629,0.5397629 -1.37555,0.3028535 -3.25537,0.4602545 -5.13133,0.4602545 -1.8758,0 -3.75566,-0.1573909 -5.13135,-0.4602545 -0.68777,-0.1514317 -1.25109,-0.3387594 -1.6063,-0.5397629 -0.35521,-0.2010033 -0.46245,-0.3701912 -0.46245,-0.5170779 v -0.034139 z m 0,3.8350022 c 0.0151,0.00909 0.0284,0.019695 0.0439,0.028382 0.47615,0.2695026 1.10032,0.4740815 1.83744,0.6364214 1.47444,0.3246698 3.39447,0.4772328 5.31884,0.4772328 1.92436,0 3.84422,-0.1526943 5.31883,-0.4772328 0.73717,-0.1623399 1.36759,-0.3667774 1.84372,-0.6364214 0.0133,-0.00707 0.0245,-0.01505 0.0375,-0.022725 v 2.72723649 c 0,0.1468564 -0.10727,0.31592306 -0.46245,0.5170678 -0.35518,0.20102361 -0.91837,0.38834131 -1.60629,0.53976291 -1.37555,0.3028636 -3.25537,0.4602544 -5.13133,0.4602544 -1.8758,0 -3.75566,-0.1573908 -5.13135,-0.4602544 -0.68777,-0.1514216 -1.25109,-0.3387595 -1.6063,-0.53976291 -0.35521,-0.20100335 -0.46245,-0.3701912 -0.46245,-0.5170678 z"
       fill-rule="evenodd"
       id="path7259-26-3-4"
       style="fill:#000000;stroke-width:0.0340518" />
    <text
       transform="scale(1.0196418,0.98073657)"
       id="text24591-4-5-4"
       y="-34.803951"
       x="654.24884"
       style="font-style:normal;font-weight:normal;font-size:5.0359px;line-height:1.25;font-family:sans-serif;text-align:center;letter-spacing:0px;word-spacing:0px;text-anchor:middle;fill:#000000;fill-opacity:1;stroke:none;stroke-width:0.264583"
       xml:space="preserve"><tspan
         style="font-style:normal;font-variant:normal;font-weight:600;font-stretch:normal;font-size:6.47473px;font-family:'Segoe UI';-inkscape-font-specification:'Segoe UI Semi-Bold';text-align:center;text-anchor:middle;stroke-width:0.264583"
         y="-34.803951"
         x="654.24884"
         sodipodi:role="line"
         id="tspan4606-2">Clean (Label) </tspan><tspan
         style="font-style:normal;font-variant:normal;font-weight:600;font-stretch:normal;font-size:6.47473px;font-family:'Segoe UI';-inkscape-font-specification:'Segoe UI Semi-Bold';text-align:center;text-anchor:middle;stroke-width:0.264583"
         y="-26.710539"
         x="654.24884"
         sodipodi:role="line"
         id="tspan7665">Corrected </tspan><tspan
         style="font-style:normal;font-variant:normal;font-weight:600;font-stretch:normal;font-size:6.47473px;font-family:'Segoe UI';-inkscape-font-specification:'Segoe UI Semi-Bold';text-align:center;text-anchor:middle;stroke-width:0.264583"
         y="-18.617126"
         x="654.24884"
         sodipodi:role="line"
         id="tspan17067-2">Local Data</tspan></text>
    <g
       id="g3199"
       transform="matrix(0.15370663,0,0,0.15739557,530.38898,-18.840943)">
      <path
         d="m 547.26601,114.18481 -20.80295,14.85936 h -22.71819 l -20.80154,-14.85936 h -10e-4 c -0.52229,-0.37345 -1.14928,-0.57464 -1.79282,-0.57464 h -61.73607 v 6.17361 h 60.74833 l 20.80154,14.85936 h 0.001 c 0.52229,0.37345 1.14928,0.57464 1.79282,0.57464 h 24.69444 c 0.64354,0 1.27057,-0.2012 1.79282,-0.57464 l 20.80295,-14.85936 h 60.74833 v -6.17361 h -61.73611 c -0.64353,0 -1.27056,0.2012 -1.79281,0.57464 z"
         id="path2925"
         style="stroke-width:0.352778" />
      <path
         d="m 529.24259,154.31329 c -0.52228,-0.37346 -1.14928,-0.57464 -1.79281,-0.57464 h -24.69445 c -0.64354,0 -1.27056,0.20119 -1.79281,0.57464 l -20.80296,14.85935 h -60.74833 v 6.17361 h 61.73611 c 0.64354,0 1.27057,-0.20119 1.79282,-0.57464 l 20.80295,-14.85935 h 22.71818 l 20.80154,14.85935 h 10e-4 c 0.52229,0.37345 1.14928,0.57464 1.79282,0.57464 h 61.73611 v -6.17361 h -60.74833 z"
         id="path2927"
         style="stroke-width:0.352778" />
      <path
         d="m 524.36368,-8.8714808 v -2.5342142 c 0,-2.557639 -2.07257,-4.630208 -4.63021,-4.630208 h -9.26042 c -2.55764,0 -4.63021,2.072569 -4.63021,4.630208 v 2.5314626 c -2.76295,0.6118577 -5.45994,1.4924263 -8.05039,2.6292879 l -1.5434,-2.1428427 v 0.00138 c -1.52273,-2.0119268 -4.37797,-2.4336028 -6.41738,-0.9480903 l -7.50746,5.4666443 c -2.05328,1.4965539 -2.50942,4.37126937 -1.02112,6.4300804 L 482.79965,4.6403 c -1.88102,2.1194142 -3.54965,4.419243 -4.97876,6.868226 l -2.35782,-0.76207 v -0.0014 c -1.17133,-0.402378 -2.45428,-0.318326 -3.56235,0.235645 -1.10794,0.552591 -1.94716,1.528233 -2.32752,2.706476 l -2.38676,7.318727 h -8.45855 10e-4 c -4.21675,-6.064602 -11.24479,-9.549694 -18.6242,-9.237133 -7.38081,0.312815 -14.08782,4.380794 -17.77541,10.780536 -0.55122,0.954969 -0.55122,2.13046 -10e-4,3.08543 0.55122,0.954969 1.56958,1.543402 2.67064,1.544778 h 12.93421 v 12.347222 h -12.93425 c -1.10105,0.0014 -2.11941,0.589809 -2.67063,1.544779 -0.54984,0.954969 -0.54984,2.13046 10e-4,3.085429 3.68758,6.399742 10.39459,10.467622 17.77541,10.780536 7.3794,0.312815 14.40744,-3.172248 18.6242,-9.237133 h 8.45432 l 2.37024,7.266517 h 10e-4 c 0.36932,1.179618 1.19613,2.162139 2.29443,2.728524 1.09968,0.566385 2.3785,0.669713 3.55388,0.286632 l 2.41985,-0.784119 h 10e-4 c 1.42903,2.44602 3.09644,4.744508 4.97875,6.862586 l -1.4938,2.068442 h -0.001 c -1.48968,2.062938 -1.03629,4.9403 1.01561,6.44525 l 7.50358,5.460999 10e-4,-0.0014 c 2.07533,1.502058 4.97347,1.043164 6.4823,-1.026654 l 1.48413,-2.061562 v -0.0014 c 2.58932,1.141024 5.28461,2.022968 8.04757,2.633415 v 2.534214 c 0,2.557639 2.07257,4.630209 4.63021,4.630209 h 9.26041 c 2.55764,0 4.63021,-2.07257 4.63021,-4.630209 V 75.58033 c 2.76296,-0.611858 5.45994,-1.492427 8.05039,-2.629288 l 1.5434,2.142843 v -0.0014 c 1.52273,2.011927 4.37798,2.433603 6.41738,0.948091 l 7.50359,-5.466645 c 2.05465,-1.496554 2.51079,-4.371269 1.02249,-6.43008 l -1.49656,-2.078073 h -10e-4 c 1.88239,-2.119418 3.55106,-4.419247 4.97876,-6.86823 l 2.35782,0.76207 10e-4,0.0014 c 1.16995,0.402379 2.45428,0.318326 3.56235,-0.235645 1.10794,-0.552591 1.94578,-1.528233 2.32752,-2.706475 l 2.38951,-7.318728 h 8.45855 -10e-4 c 4.21675,6.064603 11.24479,9.549694 18.6242,9.237133 7.38081,-0.312815 14.08782,-4.380794 17.77541,-10.780536 0.55122,-0.954969 0.55122,-2.13046 10e-4,-3.085429 -0.55121,-0.95497 -1.56958,-1.543403 -2.67063,-1.544779 H 592.27371 V 27.179338 h 12.93425 c 1.10105,-0.0014 2.11942,-0.589809 2.67063,-1.544778 0.54984,-0.95497 0.54984,-2.130461 -10e-4,-3.08543 -3.68759,-6.399742 -10.3946,-10.467623 -17.77541,-10.780537 -7.37941,-0.312815 -14.40745,3.172249 -18.6242,9.237134 h -8.45432 l -2.37024,-7.266517 h -10e-4 c -0.36933,-1.18237 -1.19888,-2.167643 -2.30131,-2.735404 -1.10243,-0.566384 -2.38538,-0.666961 -3.56376,-0.279742 l -2.41985,0.784119 c -1.4249,-2.4460196 -3.0868,-4.7445079 -4.96358,-6.8625856 l 1.4938,-2.0684419 h 10e-4 c 1.48968,-2.06293856 1.03629,-4.9402999 -1.01561,-6.4452498 l -7.50464,-5.4638221 c -2.07395,-1.5034326 -4.97487,-1.0431636 -6.48229,1.0280297 l -1.48414,2.0615627 v 0.00138 c -2.58932,-1.1410244 -5.28461,-2.021593 -8.04757,-2.6306638 z M 457.03957,39.526101 c -1.10106,0.0028 -2.11667,0.58981 -2.66789,1.543403 -2.19385,3.8227 -5.92419,6.519333 -10.2429,7.405511 -4.31729,0.886072 -8.80851,-0.125402 -12.33064,-2.775373 h 9.22055 c 0.81855,0 1.60405,-0.325219 2.18282,-0.903993 0.57876,-0.578774 0.90399,-1.364262 0.90399,-2.182813 V 24.092003 c 0,-0.81855 -0.32522,-1.604045 -0.90399,-2.182812 -0.57878,-0.578767 -1.36427,-0.903993 -2.18282,-0.903993 h -9.22055 c 3.52227,-2.649961 8.01335,-3.66148 12.33064,-2.775373 4.31871,0.886072 8.04898,3.582811 10.2429,7.405511 0.55122,0.953593 1.56683,1.540651 2.66789,1.543402 h 73.65647 c -0.93705,-2.353698 -2.39505,-4.463344 -4.26509,-6.173611 h -30.61582 c 3.05788,-4.812241 7.80098,-8.311091 13.30079,-9.811455 5.50121,-1.5006812 11.36332,-0.897114 16.4412,1.694991 5.07824,2.59073 9.00818,6.983942 11.02008,12.318295 1.99125,5.254625 1.99125,11.056055 0,16.310327 -2.01468,5.332942 -5.94607,9.722203 -11.02572,12.311239 -5.0793,2.587942 -10.94176,3.190169 -16.44015,1.686701 -5.49981,-1.503433 -10.24008,-5.0038 -13.29655,-9.815689 h 30.62817 c 1.87,-1.707374 3.32659,-3.818467 4.25944,-6.173611 z m 101.05672,-10.41788 2.26825,-0.734483 c 0.75791,-0.210841 1.44279,-0.62424 1.98162,-1.194753 h 10.80382 c 1.10106,-0.0028 2.11667,-0.589809 2.66789,-1.543402 2.19385,-3.826934 5.92702,-6.526389 10.24854,-7.412567 4.32012,-0.886072 8.8138,0.128157 12.3377,2.782253 h -9.22055 c -1.70462,0 -3.08681,1.382183 -3.08681,3.086805 v 18.520833 c 0,0.81855 0.32522,1.604045 0.90399,2.182812 0.57878,0.578768 1.36427,0.903993 2.18282,0.903993 h 9.22055 c -3.52227,2.649961 -8.01335,3.661481 -12.33064,2.775374 -4.31871,-0.886072 -8.04898,-3.582811 -10.2429,-7.405511 -0.55122,-0.953594 -1.56683,-1.540651 -2.66789,-1.543403 h -10.80382 c -0.49886,-0.547088 -1.13964,-0.945339 -1.85208,-1.147904 l -2.43222,-0.781332 c 0.14469,-1.441414 0.2191,-2.864943 0.2191,-4.244269 0.006,-1.416615 -0.0606,-2.833229 -0.19706,-4.244269 z m -21.41608,-30.7163603 1.31191,-1.8245313 4.99815,3.63925545 -1.32429,1.83003465 h -10e-4 c -1.32154,1.7969794 -1.16032,4.2830749 0.38308,5.8924471 2.17593,2.3109764 4.04319,4.8919694 5.55625,7.6799724 1.08726,1.932022 3.38032,2.83464 5.49134,2.160764 l 2.16076,-0.697301 1.9141,5.86493 -2.23241,0.716563 c -2.07394,0.744149 -3.35552,2.826349 -3.0868,5.013325 0.42167,3.124023 0.42167,6.290733 0,9.414933 -0.25356,2.207612 1.06658,4.294011 3.17087,5.009091 l 2.16076,0.691762 -1.9141,5.864931 -2.20349,-0.716563 c -2.11804,-0.644913 -4.39737,0.283877 -5.461,2.225534 -1.48967,2.742283 -3.32383,5.283553 -5.45711,7.560028 -1.59026,1.594379 -1.79007,4.106686 -0.47266,5.932311 l 1.33947,1.852083 -4.9911,3.636786 -1.31467,-1.787313 c -1.30499,-1.834162 -3.7345,-2.472196 -5.7725,-1.515851 -2.83739,1.351844 -5.836,2.334401 -8.92422,2.92421 -2.21449,0.383082 -3.8294,2.308225 -3.82411,4.555772 v 2.253086 h -6.17361 v -2.253086 c 0.005,-2.229661 -1.5875,-4.140905 -3.78142,-4.53778 -3.1199,-0.593937 -6.15033,-1.588876 -9.01665,-2.957266 -2.0133,-0.926041 -4.40161,-0.296276 -5.6956,1.503433 l -1.31191,1.824532 -4.99815,-3.639256 1.32429,-1.830034 h 0.001 c 1.32154,-1.79698 1.16032,-4.283075 -0.38308,-5.893859 -2.17594,-2.3096 -4.04319,-4.890558 -5.55625,-7.679972 -1.08589,-1.932022 -3.38032,-2.83464 -5.49134,-2.160764 l -2.16076,0.697301 -1.27194,-3.941233 h 15.03574 c 3.25218,6.95078 9.11436,12.339108 16.31315,14.993055 7.20019,2.654088 15.15709,2.361953 22.14245,-0.814423 6.98535,-3.176376 12.43682,-8.980663 15.16803,-16.150519 2.53972,-6.678083 2.53972,-14.054666 0,-20.731338 C 539.60286,15.824233 534.154,10.018569 527.169,6.8393361 520.18506,3.6602087 512.22816,3.3652864 505.02655,6.0180342 497.82636,8.6693708 491.96143,14.056076 488.70776,21.005445 h -15.03574 l 1.29949,-3.935589 2.20348,0.716562 c 2.11805,0.646289 4.39879,-0.283876 5.461,-2.225533 1.48968,-2.742283 3.32384,-5.283553 5.45712,-7.5600281 1.58613,-1.5985066 1.78044,-4.1091555 0.46027,-5.932311 l -1.33946,-1.85208327 4.9911,-3.63678603 1.28707,1.7748955 c 1.305,1.8341622 3.73451,2.47219607 5.77251,1.51585081 2.83739,-1.35184441 5.836,-2.33440101 8.92422,-2.92421021 2.21449,-0.3830814 3.8294,-2.3082249 3.82411,-4.5557721 v -2.2530858 h 6.17361 v 2.2530858 c -0.006,2.2296613 1.5875,4.1409054 3.78142,4.5377804 3.1199,0.5939367 6.15033,1.5888758 9.01665,2.95726553 2.01193,0.92879331 4.39879,0.30179079 5.6956,-1.49380223 z"
         id="path2929"
         style="stroke-width:0.352778" />
      <path
         d="m 487.32201,141.39104 h 6.17361 v 6.17361 h -6.17361 z"
         id="path2931"
         style="stroke-width:0.352778" />
      <path
         d="m 512.01645,141.39104 h 6.17361 v 6.17361 h -6.17361 z"
         id="path2933"
         style="stroke-width:0.352778" />
      <path
         d="m 425.5859,129.04381 h 6.17361 v 6.17361 h -6.17361 z"
         id="path2935"
         style="stroke-width:0.352778" />
      <path
         d="m 465.71437,129.04381 h 6.17361 v 6.17361 h -6.17361 z"
         id="path2937"
         style="stroke-width:0.352778" />
      <path
         d="m 447.19354,138.30423 h 6.17361 v 6.17361 h -6.17361 z"
         id="path2939"
         style="stroke-width:0.352778" />
      <path
         d="m 431.75951,150.65145 h 6.17361 v 6.17361 h -6.17361 z"
         id="path2941"
         style="stroke-width:0.352778" />
      <path
         d="m 462.62757,153.73826 h 6.17361 v 6.17361 h -6.17361 z"
         id="path2943"
         style="stroke-width:0.352778" />
      <path
         d="m 536.7109,147.56465 h 55.5625 l -4.93889,3.70416 3.70416,4.93889 12.34723,-9.26041 c 0.7772,-0.5829 1.23472,-1.49793 1.23472,-2.46945 0,-0.97151 -0.45752,-1.88655 -1.23472,-2.46944 l -12.34723,-9.26042 -3.70416,4.93889 4.93889,3.70417 h -55.5625 z"
         id="path2945"
         style="stroke-width:0.352778" />
      <path
         d="m 527.45048,93.547314 h -24.69444 c -1.13828,0 -2.18557,0.626992 -2.72161,1.630222 -0.53742,1.004605 -0.47819,2.222782 0.15296,3.169496 l 12.34722,18.520838 c 0.57326,0.85852 1.53652,1.37526 2.56865,1.37526 1.03212,0 1.99538,-0.51674 2.56864,-1.37526 l 12.34722,-18.520838 c 0.63116,-0.946714 0.69039,-2.164891 0.15296,-3.169496 -0.53604,-1.00323 -1.58337,-1.630222 -2.72161,-1.630222 z m -12.34722,16.051386 -6.58142,-9.877775 h 13.16178 z"
         id="path2947"
         style="stroke-width:0.352778" />
    </g>
    <text
       transform="scale(1.0196418,0.98073657)"
       id="text24591-4-5-4-1"
       y="-34.803951"
       x="595.86536"
       style="font-style:normal;font-weight:normal;font-size:5.0359px;line-height:1.25;font-family:sans-serif;text-align:center;letter-spacing:0px;word-spacing:0px;text-anchor:middle;fill:#000000;fill-opacity:1;stroke:none;stroke-width:0.264583"
       xml:space="preserve"><tspan
         style="font-style:normal;font-variant:normal;font-weight:600;font-stretch:normal;font-size:6.47473px;font-family:'Segoe UI';-inkscape-font-specification:'Segoe UI Semi-Bold';text-align:center;text-anchor:middle;stroke-width:0.264583"
         y="-34.803951"
         x="595.86536"
         sodipodi:role="line"
         id="tspan17067-2-7">Label Correction </tspan><tspan
         style="font-style:normal;font-variant:normal;font-weight:600;font-stretch:normal;font-size:6.47473px;font-family:'Segoe UI';-inkscape-font-specification:'Segoe UI Semi-Bold';text-align:center;text-anchor:middle;stroke-width:0.264583"
         y="-26.710539"
         x="595.86536"
         sodipodi:role="line"
         id="tspan3257">via Maj. Voting</tspan></text>
    <path
       d="m 287.78644,-12.606043 c 9.4e-4,-0.804452 -0.36713,-1.571315 -1.01368,-2.109418 -0.64626,-0.538117 -1.5098,-0.797 -2.37473,-0.711471 -0.86493,0.08553 -1.64965,0.506945 -2.15859,1.159165 l -8.53023,-4.110162 c 0.13176,-0.317099 0.19945,-0.653776 0.19973,-0.993513 0.004,-0.837952 -0.39387,-1.634424 -1.08557,-2.175891 -0.69194,-0.54146 -1.60728,-0.772271 -2.50031,-0.630333 -0.89332,0.141932 -1.67274,0.641668 -2.12955,1.365504 -0.45712,0.723604 -0.54431,1.597363 -0.23873,2.38612 l -8.61366,4.150849 c -0.60615,-0.769699 -1.59031,-1.206314 -2.61876,-1.161736 -1.02874,0.04431 -1.96441,0.563874 -2.49033,1.382781 -0.52591,0.81863 -0.57188,1.826849 -0.122,2.683594 0.44959,0.856745 1.33487,1.4468784 2.35576,1.5710509 v 9.15435562 c -1.0251,0.12080738 -1.91563,0.71094122 -2.36888,1.57006091 -0.45322,0.85905357 -0.40781,1.87142667 0.12034,2.69289217 0.52814,0.8214655 1.46828,1.3418308 2.50087,1.3837701 1.03237,0.042248 2.01846,-0.3992712 2.62289,-1.1745946 l 8.51382,4.1065349 c -0.13176,0.3183834 -0.19944,0.6560893 -0.19971,0.9971402 -0.005,0.8382151 0.39193,1.6354798 1.08328,2.1776718 0.69138,0.542238 1.60699,0.773787 2.50059,0.63239 0.8936,-0.14116 1.67389,-0.640896 2.13098,-1.364712 0.45741,-0.7240667 0.54487,-1.597825 0.23929,-2.3871105 l 8.63007,-4.1619288 c 0.60503,0.7709529 1.58887,1.2088876 2.6179,1.1656265 1.02902,-0.043273 1.96546,-0.5620668 2.49252,-1.3804721 0.52705,-0.8186294 0.57385,-1.8271122 0.12453,-2.68438407 -0.44931,-0.85727378 -1.33458,-1.44819832 -2.35577,-1.57289985 V -9.7962195 c 0.73708,-0.091186 1.41311,-0.4260575 1.90365,-0.9428015 0.49054,-0.516474 0.76189,-1.180069 0.7641,-1.867536 z m -5.92631,-1.015406 c -0.28468,0.67441 -0.27632,1.424721 0.024,2.093724 l -3.71794,1.9682984 c -0.60029,-1.1426794 -1.66882,-2.0172294 -2.96833,-2.4296434 -1.29978,-0.412408 -2.72343,-0.328691 -3.95612,0.232347 v -4.800793 c 0.84183,-0.102267 1.5998,-0.523689 2.09255,-1.163056 z m -5.13938,9.2321678 c 0.0496,0.1272529 0.17047,0.2194681 0.31533,0.2398187 0.50697,0.076244 0.96826,0.3160701 1.30171,0.6772463 0.33345,0.3611493 0.51756,0.8199464 0.51923,1.2949429 9.4e-4,0.5303866 -0.22591,1.0396742 -0.63121,1.41496338 -0.40531,0.37556908 -0.95543,0.58653863 -1.52899,0.58653863 h -11.04608 c -0.74127,0 -1.45238,-0.27227705 -1.97666,-0.75703817 -0.52426,-0.48479364 -0.81866,-1.14241504 -0.81866,-1.82790394 0.003,-0.5880894 0.22063,-1.1581094 0.61784,-1.6174106 0.39723,-0.459029 0.95072,-0.7805143 1.57048,-0.9121376 0.12341,-0.025763 0.22647,-0.1040664 0.27773,-0.2109687 0.0513,-0.1071593 0.0446,-0.2302899 -0.018,-0.3320416 -0.24068,-0.3928286 -0.36603,-0.837159 -0.36353,-1.2887447 0,-0.6993364 0.30057,-1.3698564 0.83512,-1.8644364 0.53484,-0.4945803 1.26022,-0.7722704 2.01619,-0.7722704 0.50502,0.0023 0.99999,0.129831 1.43371,0.3693926 0.1897,0.1038085 0.43455,0.046101 0.54708,-0.1293104 0.64542,-0.9644318 1.69728,-1.6354778 2.90122,-1.8507848 1.20423,-0.215347 2.45076,0.04457 3.43827,0.716877 0.98779,0.6722997 1.62653,1.6957516 1.76188,2.8229984 0.13537,1.1272488 -0.24485,2.2552211 -1.04906,3.1117693 -0.0934,0.088876 -0.13231,0.2148331 -0.10362,0.335906 z M 270.8423,-21.468794 c 0.60169,0 1.17855,0.221019 1.60392,0.614361 0.42536,0.393344 0.66436,0.926844 0.66436,1.482951 0,0.556403 -0.239,1.089858 -0.66436,1.483214 -0.42535,0.393343 -1.00227,0.614362 -1.60392,0.614362 -0.60165,0 -1.17856,-0.221019 -1.60393,-0.614362 -0.42536,-0.393344 -0.66436,-0.926843 -0.66436,-1.483214 6.3e-4,-0.555888 0.24039,-1.088868 0.66547,-1.481961 0.42536,-0.393086 1.0017,-0.614619 1.60286,-0.61539 z m -11.1174,7.843388 8.5937,-4.150586 c 0.4886,0.665639 1.26156,1.106344 2.12428,1.211195 v 5.254951 c -0.46213,0.30602 -0.86686,0.680279 -1.19781,1.107925 -0.80724,-0.33487 -1.71874,-0.387163 -2.56442,-0.146573 -0.84567,0.240591 -1.56799,0.7573018 -2.03207,1.4538677 l -4.94778,-2.6331447 c 0.30028,-0.669992 0.30891,-1.421689 0.024,-2.097615 z m -5.12769,1.019297 c 0,-0.556403 0.239,-1.089857 0.66436,-1.483214 0.42535,-0.393342 1.00228,-0.614362 1.60393,-0.614362 0.60165,0 1.17855,0.22102 1.60393,0.614362 0.42535,0.393345 0.66436,0.926844 0.66436,1.483214 0,0.55637 -0.23901,1.089857 -0.66436,1.483214 -0.42536,0.393343 -1.00228,0.614361 -1.60393,0.614361 -0.60112,-9.58e-4 -1.17749,-0.222304 -1.60286,-0.615389 -0.42508,-0.393344 -0.66436,-0.926317 -0.66547,-1.482225 z m 2.26834,16.869151 c -0.60253,0.00393 -1.18192,-0.2140615 -1.61035,-0.6056049 -0.42871,-0.3917983 -0.67105,-0.9249961 -0.67383,-1.4822228 -0.003,-0.5569192 0.23398,-1.0921671 0.65851,-1.48763337 0.42453,-0.39546527 1.0017,-0.61848249 1.60421,-0.61976776 0.60252,-0.001342 1.18084,0.21921031 1.60757,0.61256126 0.42647,0.39360687 0.66603,0.92783217 0.66632,1.48505897 0,0.5538253 -0.23678,1.0849777 -0.6588,1.4780699 -0.42201,0.3928296 -0.99472,0.6156484 -1.59365,0.6195109 z m 2.43206,-3.81473147 c -0.49193,-0.60406195 -1.22313,-1.00254913 -2.03266,-1.10792661 V -9.7955064 c 0.81567,-0.1004597 1.55381,-0.4997306 2.04856,-1.1079276 l 5.01573,2.6624918 c -0.13371,0.3562498 -0.2025,0.7307914 -0.20363,1.1079256 -2e-4,0.4247734 0.0863,0.845667 0.25543,1.2408045 -0.68497,0.2408471 -1.27525,0.6676831 -1.69306,1.2248447 -0.41756,0.5569172 -0.64319,1.2176573 -0.64709,1.8956291 -0.005,0.5357951 0.1326,1.0644019 0.39946,1.5399237 z m 0.4273,2.73278727 v -1.869e-4 c 0.13065,-0.3245706 0.19583,-0.6690028 0.19166,-1.0154056 9.4e-4,-0.3701645 -0.0774,-0.7367291 -0.23177,-1.0783196 l 3.19482,-1.69495886 c 0.0607,0.071097 0.12617,0.13884427 0.19554,0.20298204 0.68219,0.63161793 1.61063,0.98296245 2.57583,0.97498245 h 4.79203 V 6.1094927 c -0.88747,0.073924 -1.69556,0.5028239 -2.21228,1.1743982 z m 10.9976,7.8473442 c -0.60197,0.0012 -1.17942,-0.21921 -1.60564,-0.61204 -0.42621,-0.393086 -0.66603,-0.9263167 -0.6666,-1.4829491 -6.3e-4,-0.5564054 0.23761,-1.0903858 0.66298,-1.4842716 0.42507,-0.3938628 1.00199,-0.6153896 1.60393,-0.6156455 0.60168,-5.617e-4 1.17911,0.2205023 1.60477,0.6138456 0.42565,0.3933433 0.66464,0.927109 0.66464,1.4837416 0,0.5556333 -0.23844,1.088606 -0.66269,1.4817 -0.42452,0.393343 -1.00056,0.614875 -1.60143,0.615646 z m 11.13736,-7.8473442 -8.62151,4.1544759 C 272.77205,6.7078193 272.05253,6.2791498 271.24165,6.1465364 V 0.57037253 h 5.45501 c 0.78557,7.763e-4 1.53904,-0.289277 2.09256,-0.80497951 0.0719,-0.0667169 0.13982,-0.13703845 0.20362,-0.21071077 l 2.89117,1.53240765 v 1.878e-4 c -0.30029,0.669002 -0.30865,1.419312 -0.024,2.0937233 z m -2.45189,-4.257745 c 0.16685,-0.3487845 0.25126,-0.7264391 0.24764,-1.1079265 -0.003,-0.5489305 -0.18301,-1.0844496 -0.51757,-1.5378152 -0.33426,-0.4533646 -0.8078,-0.8039232 -1.35932,-1.0064375 0.90729,-1.2078323 1.16215,-2.7351631 0.69082,-4.1397716 l 3.81371,-2.020063 c 0.49334,0.604318 1.2257,1.0025476 2.03658,1.107926 v 9.13588943 c -0.81144,0.10380947 -1.5443,0.50256693 -2.03658,1.10792756 z m 7.5875,3.2423394 c 0,0.5564025 -0.23901,1.0898552 -0.66437,1.4832119 -0.42535,0.3933433 -1.00227,0.6143612 -1.60393,0.6143612 -0.60141,0 -1.17855,-0.2210179 -1.60392,-0.6143612 -0.42536,-0.3933404 -0.66436,-0.926843 -0.66436,-1.4832119 0,-0.5563719 0.239,-1.0898582 0.66436,-1.48321497 0.42535,-0.39334327 1.00256,-0.61436119 1.60392,-0.61436119 0.60002,0.003067 1.17414,0.22514016 1.59751,0.61796879 0.42369,0.39308547 0.66185,0.92473257 0.6627,1.47965147 z m -2.27611,-12.6737902 c -0.60169,0 -1.17856,-0.221019 -1.60394,-0.614362 -0.42535,-0.393343 -0.66436,-0.926843 -0.66436,-1.483214 0,-0.556369 0.23901,-1.089857 0.66436,-1.483213 0.42537,-0.393344 1.00229,-0.614362 1.60394,-0.614362 0.60141,0 1.17827,0.221018 1.60365,0.614362 0.42564,0.393343 0.66435,0.926844 0.66435,1.483213 -6.3e-4,0.555889 -0.24012,1.088868 -0.66547,1.482225 -0.42508,0.393086 -1.00142,0.614362 -1.60257,0.61539 z"
       id="path8743"
       style="stroke-width:0.0685752" />
    <path
       d="m 323.65528,-2.0074462 c 0,0.2197956 0.0787,0.4185602 0.20619,0.5626773 0.12727,0.1438804 0.30331,0.233106 0.49772,0.233106 0.19442,0 0.37024,-0.088996 0.49772,-0.233106 0.12727,-0.1438731 0.20619,-0.3428817 0.20619,-0.5626773 0,-0.2197957 -0.0787,-0.4185603 -0.20619,-0.5626774 -0.12726,-0.1438803 -0.3033,-0.2331059 -0.49772,-0.2331059 -0.19441,0 -0.37024,0.088989 -0.49772,0.2331059 -0.12726,0.1438731 -0.20619,0.3428817 -0.20619,0.5626774 z m 18.89336,-3.3309744 3.04908,1.2832486 1.26591,-1.6167787 -1.26591,-1.616788 -3.05157,1.2842101 c 0.0269,0.1074438 0.0411,0.220958 0.0411,0.3382106 0,0.1135142 -0.0134,0.2237614 -0.0388,0.3281629 z m 3.44434,1.4495376 3.22744,1.358231 c 0.0138,-0.025924 0.0283,-0.051153 0.0438,-0.075671 l -2.13777,-2.7302245 z m 3.08796,1.7742225 -3.36749,-1.417069 -3.5084,4.4808904 c 0.0209,0.020321 0.0411,0.041574 0.0607,0.063531 0.0244,0.02756 0.0475,0.056291 0.0694,0.08619 l 6.74207,-2.7855967 c -0.01,-0.06587 -0.0145,-0.1336052 -0.0145,-0.2027398 0,-0.077078 0.006,-0.1522899 0.018,-0.2253924 z m -3.76254,-1.583358 -2.94087,-1.237685 c -0.0339,0.052552 -0.0711,0.1018327 -0.11157,0.1476187 -0.19875,0.2246964 -0.47354,0.3639056 -0.77686,0.3639056 -0.23967,0 -0.46157,-0.086886 -0.64216,-0.2342755 l -1.90721,1.701328 2.15739,3.68766151 c 0.12169,-0.0525523 0.25392,-0.0815193 0.39193,-0.0815193 0.13822,0 0.27066,0.0289669 0.39256,0.0817489 l -0.0172,-0.0170487 3.45408,-4.41146881 z m 1.80826,-2.3093228 2.13486,-2.7267588 c -0.0157,-0.025229 -0.0306,-0.051153 -0.0444,-0.077781 l -3.22389,1.3568031 z m 2.41523,-2.4134898 -2.15241,2.7489378 2.15638,2.7540733 c 0.17561,-0.1347748 0.38759,-0.2134885 0.61592,-0.2134885 0.3033,0 0.5781,0.1389724 0.77687,0.3639055 0.19876,0.2246964 0.32189,0.5353465 0.32189,0.8782641 0,0.3429176 -0.12293,0.6535605 -0.32189,0.8782641 -0.19876,0.22469636 -0.47354,0.36390552 -0.77687,0.36390552 -0.30333,0 -0.5781,-0.13897237 -0.77687,-0.36390552 -0.0676,-0.076375 -0.12624,-0.162565 -0.17438,-0.2564618 l -6.68019,2.7598803 c 0.0374,0.1249589 0.0576,0.2590305 0.0576,0.3982468 0,0.3428889 -0.12293,0.6535533 -0.32189,0.8782641 -0.19875,0.2246964 -0.47354,0.3639055 -0.77687,0.3639055 -0.30333,0 -0.5781,-0.1389795 -0.77687,-0.3639055 -0.15475,-0.1749496 -0.26342,-0.4015116 -0.30412,-0.654931 h -6.39987 c -0.0407,0.2534265 -0.14938,0.4802253 -0.30413,0.654931 -0.19875,0.2246964 -0.47354,0.3639055 -0.77686,0.3639055 -0.30333,0 -0.57811,-0.1389795 -0.77687,-0.3639055 -0.0587,-0.066336 -0.11075,-0.1401491 -0.15496,-0.2200253 l -6.55008,2.9474585 c 0.008,0.061658 0.0126,0.1247222 0.0126,0.1891928 0,0.3428889 -0.12294,0.6535605 -0.3219,0.878264 -0.19875,0.2246964 -0.47354,0.3639056 -0.77687,0.3639056 -0.30332,0 -0.5781,-0.1389724 -0.77687,-0.3639056 -0.19875,-0.2246964 -0.32189,-0.5353464 -0.32189,-0.878264 0,-0.3429177 0.12293,-0.6535533 0.32189,-0.8782641 0.19876,-0.2246964 0.47355,-0.3639056 0.77687,-0.3639056 0.10909,0 0.21446,0.017989 0.31405,0.05139 l 2.22847,-4.94801348 -1.71939,-0.73152792 c -0.0149,0.018921 -0.0302,0.037606 -0.0461,0.055358 -0.19875,0.22469637 -0.47354,0.36390553 -0.77687,0.36390553 -0.3033,0 -0.5781,-0.13897237 -0.77687,-0.36390553 -0.19875,-0.2246964 -0.32189,-0.5353465 -0.32189,-0.8782641 0,-0.3429176 0.12293,-0.6535533 0.32189,-0.8782641 0.19876,-0.2246964 0.47355,-0.3639055 0.77687,-0.3639055 0.20393,0 0.39504,0.062835 0.55864,0.1723737 l 1.91028,-2.4947988 -1.91028,-2.4948081 c -0.16363,0.109539 -0.35474,0.1723737 -0.55864,0.1723737 -0.3033,0 -0.5781,-0.1389724 -0.77687,-0.3639056 -0.19875,-0.2246964 -0.32189,-0.5353464 -0.32189,-0.878264 0,-0.3428818 0.12293,-0.6535534 0.32189,-0.8782637 0.19876,-0.224697 0.47355,-0.363906 0.77687,-0.363906 0.3033,0 0.57811,0.138979 0.77687,0.363906 0.0159,0.017981 0.0312,0.036437 0.0461,0.055351 l 1.71939,-0.7315286 -2.22847,-4.948006 c -0.0994,0.0334 -0.20496,0.05139 -0.31405,0.05139 -0.3033,0 -0.5781,-0.13898 -0.77687,-0.363906 -0.19875,-0.224696 -0.32189,-0.535346 -0.32189,-0.878264 0,-0.342917 0.12293,-0.653553 0.32189,-0.878264 0.19876,-0.224696 0.47355,-0.363905 0.77687,-0.363905 0.30333,0 0.57811,0.138972 0.77687,0.363905 0.19876,0.224697 0.3219,0.535347 0.3219,0.878264 0,0.06423 -0.004,0.127528 -0.0126,0.189193 l 6.55008,2.947459 c 0.0442,-0.07988 0.0963,-0.15369 0.15496,-0.220026 0.19875,-0.224696 0.47354,-0.363905 0.77687,-0.363905 0.30332,0 0.5781,0.138979 0.77686,0.363905 0.13719,0.155096 0.23822,0.350832 0.2876,0.569918 h 6.43266 c 0.0496,-0.219093 0.15062,-0.414829 0.2876,-0.569918 0.19875,-0.224696 0.47354,-0.363905 0.77687,-0.363905 0.30332,0 0.5781,0.138979 0.77687,0.363905 0.19875,0.224697 0.32189,0.535347 0.32189,0.878264 0,0.07335 -0.006,0.145287 -0.0165,0.215362 l 6.64264,2.744274 c 0.0475,-0.09133 0.10496,-0.17518 0.17086,-0.249689 0.19876,-0.224696 0.47355,-0.363905 0.77687,-0.363905 0.30333,0 0.57811,0.138972 0.77687,0.363905 0.19876,0.224697 0.3219,0.5353471 0.3219,0.8782647 0,0.3428818 -0.12293,0.6535533 -0.3219,0.8782641 -0.19875,0.2246964 -0.47354,0.3638984 -0.77687,0.3638984 -0.22995,0 -0.44337,-0.079876 -0.61983,-0.2165165 z m -7.16996,2.0152573 2.94663,-1.2400242 -3.34602,-4.273221 c -0.14586,0.08105 -0.31011,0.126595 -0.48346,0.126595 -0.15309,0 -0.29895,-0.0355 -0.43118,-0.09951 l -2.11815,3.6203924 1.8483,1.6487757 c 0.19028,-0.1784512 0.43449,-0.2856582 0.70102,-0.2856582 0.3033,0 0.5781,0.1389795 0.77687,0.3639055 0.0382,0.043217 0.0738,0.089692 0.10599,0.1389724 z m 3.34168,-1.4063706 3.36628,-1.4165954 c -0.0112,-0.070771 -0.0169,-0.1434139 -0.0169,-0.2179229 0,-0.071703 0.005,-0.1420147 0.0157,-0.2102165 l -6.64423,-2.7449338 c -0.0411,0.07848 -0.0897,0.15112 -0.14442,0.217227 l 3.42367,4.3724847 z m 3.74434,5.922949 c 0,0.2197956 0.0787,0.4185675 0.2062,0.5626846 0.12726,0.1438731 0.3033,0.2330987 0.49772,0.2330987 0.19441,0 0.37024,-0.088989 0.49771,-0.2330987 0.12727,-0.1438804 0.2062,-0.342889 0.2062,-0.5626846 0,-0.2197884 -0.0787,-0.4185603 -0.2062,-0.5626774 -0.12726,-0.1438803 -0.3033,-0.2331059 -0.49771,-0.2331059 -0.19442,0 -0.37025,0.088996 -0.49772,0.2331059 -0.12727,0.1438803 -0.2062,0.342889 -0.2062,0.5626774 z m 0.2062,-8.1201016 c -0.12727,0.1438731 -0.2062,0.3428817 -0.2062,0.5626774 0,0.2197956 0.0787,0.4185602 0.2062,0.5626773 0.12726,0.1438804 0.3033,0.233106 0.49772,0.233106 0.19441,0 0.37024,-0.088996 0.49771,-0.233106 0.12727,-0.1438731 0.2062,-0.3428817 0.2062,-0.5626773 0,-0.2197957 -0.0787,-0.4185603 -0.2062,-0.5626774 -0.12726,-0.14388 -0.3033,-0.233106 -0.49771,-0.233106 -0.19442,0 -0.37025,0.08899 -0.49772,0.233106 z m -9.24596,4.6219414 h -2.90014 l 1.20391,2.0577641 1.85099,-1.6511006 c -0.0717,-0.1221605 -0.12479,-0.2594969 -0.15475,-0.4066492 z m -3.63835,0 h -2.78177 c -0.0171,0.084554 -0.0421,0.1660665 -0.0738,0.2429146 l 1.78239,1.5910787 1.07311,-1.8342588 z m -2.76379,-0.4463483 h 2.76834 l -1.07766,-1.8422163 -1.75325,1.564946 c 0.0297,0.088056 0.051,0.1807832 0.0626,0.2770192 z m 3.49745,0 h 2.88671 c 0.0192,-0.1614025 0.0659,-0.313226 0.1345,-0.4486968 l -1.81275,-1.6170248 z m -3.76603,-0.6593582 1.74171,-1.5549005 -2.22556,-3.8039594 c -0.10599,0.03854 -0.219,0.05933 -0.33636,0.05933 -0.15309,0 -0.29875,-0.03551 -0.43119,-0.09927 l -1.49148,3.3116077 1.36941,1.8405372 c 0.16239,-0.1072142 0.35144,-0.1688721 0.5533,-0.1688721 0.3033,0 0.5781,0.1389724 0.77687,0.3639056 0.0149,0.016812 0.0291,0.034097 0.0432,0.05162 z m 2.05224,-1.8319268 1.22227,-1.0912574 -3.21771,-2.8701437 c -0.0306,0.04578 -0.064,0.08923 -0.1,0.129867 -0.0291,0.03293 -0.0597,0.06377 -0.0919,0.09296 l 2.18716,3.7385424 z m 1.53962,-1.3743254 3.15243,-2.8140537 c -0.0485,-0.118659 -0.0812,-0.247586 -0.0944,-0.383057 h -6.37818 c -0.007,0.07007 -0.0188,0.138276 -0.0355,0.204146 z m 3.37928,-2.4502057 -3.06193,2.7332737 0.97272,0.867745 2.09974,-3.5892947 c -0.004,-0.0039 -0.007,-0.0077 -0.0107,-0.01168 z m -3.37928,3.0165856 -1.32208,1.1799879 1.13177,1.9346565 1.26258,-2.1582335 z m 3.41604,10.0861502 -2.12597,-3.6338965 -0.97272,0.8677379 z m -2.34356,-4.0060034 -1.26257,-2.1582192 -1.13178,1.9346493 1.32208,1.1799879 z m 2.10677,4.361069 -3.17925,-2.8381563 -3.37453,3.0100635 c 0.0186,0.060495 0.0335,0.1228637 0.0436,0.1870904 h 6.39987 c 0.0205,-0.1275277 0.0583,-0.2482818 0.11033,-0.3592344 z m -3.4966,-3.1212242 -1.22227,-1.0912575 -2.22022,3.7951125 c 0.0442,0.036903 0.0859,0.077551 0.12479,0.1214573 0.0219,0.024755 0.043,0.050687 0.0632,0.077781 z m -1.53264,-1.3682838 -1.79191,-1.5995025 c -0.19834,0.220262 -0.47003,0.3561992 -0.77004,0.3561992 -0.1624,0 -0.31653,-0.039945 -0.45516,-0.1114118 l -1.46753,1.9722553 1.49149,3.31161519 c 0.13243,-0.0640042 0.27809,-0.0992711 0.43119,-0.0992711 0.10206,0 0.20103,0.0158791 0.29482,0.0453124 l 2.26709,-3.87499579 z m 5.29602,5.0717884 c 0,0.2197885 0.0787,0.4185603 0.2062,0.5626774 0.12726,0.1438803 0.3033,0.2331059 0.49771,0.2331059 0.19442,0 0.37024,-0.088996 0.49772,-0.2331059 0.12727,-0.1438803 0.2062,-0.3428889 0.2062,-0.5626774 0,-0.2197956 -0.0787,-0.4185674 -0.2062,-0.5626845 -0.12726,-0.1438732 -0.3033,-0.2330988 -0.49772,-0.2330988 -0.19441,0 -0.37024,0.088989 -0.49771,0.2330988 -0.12727,0.1438803 -0.2062,0.3428889 -0.2062,0.5626845 z m 0.2062,-8.1201088 c -0.12727,0.1438803 -0.2062,0.342889 -0.2062,0.5626774 0,0.2197935 0.0787,0.4185653 0.2062,0.5626824 0.12726,0.1438731 0.3033,0.2330988 0.49771,0.2330988 0.19442,0 0.37024,-0.088989 0.49772,-0.2330988 0.12727,-0.1438803 0.2062,-0.3428889 0.2062,-0.5626824 0,-0.2197884 -0.0787,-0.4185603 -0.2062,-0.5626774 -0.12726,-0.1438803 -0.3033,-0.2331059 -0.49772,-0.2331059 -0.19441,0 -0.37024,0.088996 -0.49771,0.2331059 z m 0,-7.368499 c -0.12727,0.14388 -0.2062,0.342889 -0.2062,0.562684 0,0.219789 0.0787,0.418561 0.2062,0.562678 0.12726,0.14388 0.3033,0.233106 0.49771,0.233106 0.19442,0 0.37024,-0.089 0.49772,-0.233106 0.12727,-0.143881 0.2062,-0.342889 0.2062,-0.562678 0,-0.219795 -0.0787,-0.418567 -0.2062,-0.562684 -0.12726,-0.143873 -0.3033,-0.233099 -0.49772,-0.233099 -0.19441,0 -0.37024,0.08899 -0.49771,0.233099 z m -15.61144,11.1295766 2.83154,-1.2972405 -1.1231,-1.466823 -1.8731,2.4461951 c 0.068,0.095296 0.12355,0.2022734 0.16446,0.3178899 z m 3.61851,-1.6579243 0.71282,-0.3265363 -0.28285,-0.6280808 z m 1.07994,-0.4947052 1.77001,-0.8109305 c -0.013,-0.076143 -0.0196,-0.1548565 -0.0196,-0.2352061 0,-0.018225 4e-4,-0.036444 10e-4,-0.054425 l -1.75139,-0.8023273 -0.42851,0.9515747 0.42851,0.9515654 z m 1.91319,-0.3954413 -1.73341,0.794133 0.55308,1.2281131 1.33736,-1.7973559 c -0.0595,-0.067735 -0.11239,-0.1431772 -0.15681,-0.224926 z m -2.10059,0.9623378 -1.02107,0.4678406 1.20783,1.5775603 0.45743,-0.6147489 z m -1.72352,0.7896986 -2.70963,1.2414592 v 0.014946 c 0,0.152993 -0.0244,0.2994421 -0.0692,0.4346833 l 1.69274,0.72034159 1.08591,-2.41140169 z m -3.10446,7.9957476 3.37225,-4.53225875 -1.16197,-0.49446841 -2.24831,4.99237156 c 0.013,0.011215 0.0256,0.02266 0.038,0.034341 z m 3.64126,-4.89383232 1.11691,-1.50114988 -1.21629,-1.5885099 -1.15161,2.55742028 z m 2.02474,-2.03092828 -0.3907,0.5250642 1.52291,1.98889497 z m -0.64729,0.8700698 -0.98717,1.32690349 2.89851,1.23326501 c 0.007,-0.012377 0.0136,-0.024525 0.0209,-0.036666 z m -1.25617,1.68824744 -3.50284,4.70763176 6.52733,-2.9371763 c -0.014,-0.07918 -0.0215,-0.1611657 -0.0215,-0.245017 0,-0.081756 0.007,-0.1614025 0.0202,-0.238717 l -3.0237,-1.28654207 z m 1.9857,-8.51595184 -0.55308,1.2281202 1.66132,0.7611909 c 0.0403,-0.104875 0.0932,-0.2022734 0.15619,-0.2898702 z m -2.29231,4.1064563 0.68822,-1.5280481 -0.68822,-1.5280575 -1.17001,1.5280575 z m 0.90968,-2.0196823 0.28284,-0.6280808 -0.71281,-0.3265362 z m 0.46259,-1.0270308 0.64422,-1.4306519 -0.45743,-0.614749 -1.20783,1.5775675 z m 0.83801,-1.8606354 1.1322,-2.5139444 -1.52291,1.9888874 z m 1.49482,10.8419596 c 0,0.2197957 0.0787,0.4185675 0.20619,0.5626846 0.12727,0.1438803 0.3033,0.2330987 0.49772,0.2330987 0.19442,0 0.37024,-0.088989 0.49772,-0.2330987 0.12727,-0.1438803 0.20619,-0.3428889 0.20619,-0.5626846 0,-0.2197884 -0.0787,-0.4185602 -0.20619,-0.5626773 -0.12727,-0.1438804 -0.3033,-0.2330988 -0.49772,-0.2330988 -0.19442,0 -0.37024,0.088989 -0.49772,0.2330988 -0.12726,0.1438803 -0.20619,0.3428889 -0.20619,0.5626773 z m -8.56841,3.7948757 c 0,0.2197885 0.0787,0.4185603 0.20619,0.5626774 0.12727,0.1438803 0.3033,0.2330988 0.49772,0.2330988 0.19442,0 0.37024,-0.088989 0.49772,-0.2330988 0.12726,-0.1438803 0.20619,-0.3428889 0.20619,-0.5626774 0,-0.2197956 -0.0787,-0.4185674 -0.20619,-0.5626845 -0.12727,-0.1438803 -0.3033,-0.2330988 -0.49772,-0.2330988 -0.19442,0 -0.37024,0.088989 -0.49772,0.2330988 -0.12727,0.1438803 -0.20619,0.3428889 -0.20619,0.5626845 z m 8.35843,-18.0304797 c -0.007,-0.01214 -0.014,-0.02429 -0.0209,-0.03667 l -2.89851,1.233265 0.98717,1.3269037 z m -4.9253,6.4327107 1.12309,-1.4668229 -2.83154,-1.2972477 c -0.0409,0.1156237 -0.0965,0.2226012 -0.16446,0.3178971 l 1.8731,2.4461951 z m 1.51629,-1.9804567 1.21629,-1.5885099 -1.11691,-1.5011431 -1.25099,0.532312 z m -3.14704,-1.2293186 2.70963,1.2414521 -1.08592,-2.4113945 -1.69274,0.7203415 c 0.0448,0.1352412 0.0692,0.2816903 0.0692,0.4346833 v 0.014946 z m -0.13512,-7.0952404 3.50284,4.707639 3.0237,-1.286542 c -0.0132,-0.07731 -0.0202,-0.157197 -0.0202,-0.238717 0,-0.08384 0.007,-0.165829 0.0215,-0.245017 l -6.52734,-2.937176 z m 3.11255,4.873749 -3.37225,-4.532259 c -0.0124,0.01168 -0.0252,0.02313 -0.038,0.03433 l 2.24831,4.992379 z m 3.99452,5.1142952 c -0.12726,0.1438803 -0.20619,0.3428889 -0.20619,0.5626774 0,0.2197935 0.0787,0.4185653 0.20619,0.5626824 0.12727,0.1438731 0.3033,0.2330987 0.49772,0.2330987 0.19442,0 0.37024,-0.088989 0.49772,-0.2330987 0.12727,-0.1438803 0.20619,-0.3428889 0.20619,-0.5626824 0,-0.2197885 -0.0787,-0.4185603 -0.20619,-0.5626774 -0.12727,-0.1438803 -0.3033,-0.2331059 -0.49772,-0.2331059 -0.19442,0 -0.37024,0.088996 -0.49772,0.2331059 z m 0,-7.3684992 c -0.12726,0.14388 -0.20619,0.342889 -0.20619,0.562685 0,0.219788 0.0787,0.41856 0.20619,0.562677 0.12727,0.14388 0.3033,0.233106 0.49772,0.233106 0.19442,0 0.37024,-0.089 0.49772,-0.233106 0.12727,-0.14388 0.20619,-0.342889 0.20619,-0.562677 0,-0.219796 -0.0787,-0.418568 -0.20619,-0.562685 -0.12727,-0.143873 -0.3033,-0.233099 -0.49772,-0.233099 -0.19442,0 -0.37024,0.08899 -0.49772,0.233099 z m -8.56841,-3.794868 c -0.12727,0.14388 -0.20619,0.342888 -0.20619,0.562684 0,0.219789 0.0787,0.41856 0.20619,0.562677 0.12727,0.143881 0.3033,0.233106 0.49772,0.233106 0.19442,0 0.37024,-0.089 0.49772,-0.233106 0.12726,-0.14388 0.20619,-0.342888 0.20619,-0.562677 0,-0.219796 -0.0787,-0.418567 -0.20619,-0.562684 -0.12727,-0.143874 -0.3033,-0.233099 -0.49772,-0.233099 -0.19442,0 -0.37024,0.08899 -0.49772,0.233099 z m 0,7.6931837 c -0.12727,0.1438803 -0.20619,0.3428889 -0.20619,0.5626774 0,0.2197956 0.0787,0.4185675 0.20619,0.5626846 0.12727,0.1438731 0.3033,0.2330987 0.49772,0.2330987 0.19442,0 0.37024,-0.088989 0.49772,-0.2330987 0.12726,-0.1438804 0.20619,-0.342889 0.20619,-0.5626846 0,-0.2197885 -0.0787,-0.4185603 -0.20619,-0.5626774 -0.12727,-0.1438803 -0.3033,-0.2331059 -0.49772,-0.2331059 -0.19442,0 -0.37024,0.088996 -0.49772,0.2331059 z"
       id="path1432"
       style="stroke-width:0.0562372" />
    <g
       id="g2783"
       transform="matrix(0.8,0,0,0.8,143.78683,-39.190468)">
      <path
         d="m 416.45694,28.176989 h 5.44004 v 4.961416 h -5.44004 z"
         id="path2497"
         style="stroke-width:0.0587059" />
      <path
         d="m 422.97726,28.176989 h 5.44004 v 4.961416 h -5.44004 z"
         id="path2499"
         style="stroke-width:0.0587059" />
      <path
         d="m 429.49708,28.176989 h 5.43954 v 4.961416 h -5.43954 z"
         id="path2501"
         style="stroke-width:0.0587059" />
      <path
         d="m 436.0169,28.176989 h 5.44004 v 4.961416 h -5.44004 z"
         id="path2503"
         style="stroke-width:0.0587059" />
      <path
         d="m 416.45694,39.662269 h 5.44004 v -4.961416 h -5.44004 z m 0.76669,-3.913055 h 3.90667 v 2.864214 l -3.90667,2.72e-4 z"
         id="path2505"
         style="stroke-width:0.0587059" />
      <path
         d="m 422.97726,39.662269 h 5.44004 l -1.4e-4,-4.961416 h -5.44004 z m 0.76669,-3.913055 h 3.90667 v 2.864214 l -3.90667,2.72e-4 z"
         id="path2507"
         style="stroke-width:0.0587059" />
      <path
         d="m 429.49708,39.662269 h 5.43954 v -4.961416 h -5.43954 z m 0.76668,-3.913055 h 3.90647 v 2.864214 l -3.90647,2.72e-4 z"
         id="path2509"
         style="stroke-width:0.0587059" />
      <path
         d="m 436.0169,39.662269 h 5.44004 v -4.961416 h -5.44004 z m 0.76668,-3.913055 h 3.90667 v 2.864214 l -3.90667,2.72e-4 z"
         id="path2511"
         style="stroke-width:0.0587059" />
      <path
         d="m 416.45694,46.535998 h 5.44004 v -4.96169 h -5.44004 z m 0.76669,-3.913055 h 3.90667 v 2.864215 h -3.90667 z"
         id="path2513"
         style="stroke-width:0.0587059" />
      <path
         d="m 422.97726,46.535998 h 5.44004 l -1.4e-4,-4.96169 h -5.44004 z m 0.76669,-3.913055 h 3.90667 v 2.864215 h -3.90667 z"
         id="path2515"
         style="stroke-width:0.0587059" />
      <path
         d="m 429.49708,46.535998 h 5.43954 v -4.96169 h -5.43954 z m 0.76668,-3.913055 h 3.90647 v 2.864215 h -3.90647 z"
         id="path2517"
         style="stroke-width:0.0587059" />
      <path
         d="m 436.0169,46.535998 h 5.44004 v -4.96169 h -5.44004 z m 0.76668,-3.913055 h 3.90667 v 2.864215 h -3.90667 z"
         id="path2519"
         style="stroke-width:0.0587059" />
      <path
         d="m 416.45694,53.176989 h 5.44004 v -4.961691 h -5.44004 z m 0.76669,-3.913057 h 3.90667 v 2.864215 h -3.90667 z"
         id="path2521"
         style="stroke-width:0.0587059" />
      <path
         d="m 422.97726,53.176989 h 5.44004 l -1.4e-4,-4.961691 h -5.44004 z m 0.76669,-3.913057 h 3.90667 v 2.864215 h -3.90667 z"
         id="path2523"
         style="stroke-width:0.0587059" />
      <path
         d="m 429.49708,53.176989 h 5.43954 v -4.961691 h -5.43954 z m 0.76668,-3.913057 h 3.90647 v 2.864215 h -3.90647 z"
         id="path2525"
         style="stroke-width:0.0587059" />
      <path
         d="m 436.0169,53.176989 h 5.44004 v -4.961691 h -5.44004 z m 0.76668,-3.913057 h 3.90667 v 2.864215 h -3.90667 z"
         id="path2527"
         style="stroke-width:0.0587059" />
    </g>
  </g>
</svg>
